. 
 
http://www.torrenting.com          :     Once & For all ;)


               www . Torrenting . Com 

(((((((((((((= Enjoy No RAR releases =))))))))))))))))))))


...................................NFO:....................................

.	
The Rum Diary 2011 Cam XviD - ILLUMINATI
 
http://www.imdb.com/title/tt0376136/

Plot:
American journalist Paul Kemp takes on a freelance job 
in Puerto Rico for a local newspaper during the 1950s 
and struggles to find a balance between island culture 
and the expatriates who live there. 

Sources:
Video - Relizlab - Many Thanks ;) :P
Audio -          - Many Thanks ;) :P

iNFO:

Video
Format                           : AVI
Format/Info                      : Audio Video Interleave
File size                        : 1.37 GiB
Duration                         : 1h 50mn
Overall bit rate                 : 1 777 Kbps
Writing library                  : VirtualDub build 30586/release

ID                               : 0
Format                           : MPEG-4 Visual
Format profile                   : Advanced Simple@L5
Format settings, BVOP            : 2
Format settings, QPel            : No
Format settings, GMC             : No warppoints
Format settings, Matrix          : Default (H.263)
Muxing mode                      : Packed bitstream
Codec ID                         : XVID
Codec ID/Hint                    : XviD
Duration                         : 1h 50mn
Bit rate                         : 1 639 Kbps
Width                            : 720 pixels
Height                           : 304 pixels
Display aspect ratio             : 2.35:1
Frame rate                       : 25.000 fps
Color space                      : YUV
Chroma subsampling               : 4:2:0
Bit depth                        : 8 bits
Scan type                        : Progressive
Compression mode                 : Lossy
Bits/(Pixel*Frame)               : 0.300
Stream size                      : 1.26 GiB (92%)
Writing library                  : XviD 64


Audio
ID                               : 1
Format                           : MPEG Audio
Format version                   : Version 1
Format profile                   : Layer 3
Mode                             : Joint stereo
Mode extension                   : MS Stereo
Codec ID                         : 55
Codec ID/Hint                    : MP3
Duration                         : 1h 50mn
Bit rate mode                    : Constant
Bit rate                         : 128 Kbps
Channel(s)                       : 2 channels
Sampling rate                    : 44.1 KHz
Compression mode                 : Lossy
Stream size                      : 101 MiB (7%)
Alignment                        : Split accross interleaves
Interleave, duration             : 40 ms (1.00 video frame)
Writing library                  : LAME3.98r
Encoding settings                : -m j -V 4 -q 2 -lowpass 17 -b 128

Release Notes:
Video is from our very good friends over at Relizlab... big thanks guys on 
that ;) and is not to bad video but there is a chair in bottom left but tbh
you dont notice it and is a good watch for all them cam fans :P 
and those who cant wait ;)

Audio is from a very good friend of ours :D many thanks :P which agian
is very nice can and will defo do untill line shows up.. so thanks 
agian on that ;) ;) :)

Screens:
[IMG]http://i.imgur.com/34WPW.png[/IMG]
[IMG]http://i.imgur.com/F3pUR.png[/IMG]
[IMG]http://i.imgur.com/P6Z6a.png[/IMG]
[IMG]http://i.imgur.com/JxQ2y.png[/IMG]
[IMG]http://i.imgur.com/vuHOA.png[/IMG]
[IMG]http://i.imgur.com/uZObl.png[/IMG]

Greets To All Doing There Thing To SUpport P2P And The Scene